<svg width="95" height="24" viewBox="0 0 95 24" fill="none" xmlns="http://www.w3.org/2000/svg">
<path d="M11.4809 0.852539H0.737305V11.5961H11.4809V0.852539Z" fill="#F25022"/>
<path d="M23.3398 0.852539H12.5962V11.5961H23.3398V0.852539Z" fill="#7FBA00"/>
<path d="M11.4809 12.6987H0.737305V23.4423H11.4809V12.6987Z" fill="#00A4EF"/>
<path d="M23.3398 12.6987H12.5962V23.4423H23.3398V12.6987Z" fill="#FFB900"/>
<path d="M44.0449 12.9551C44.0449 12.6346 44.1603 12.3782 44.3911 12.1602C44.6218 11.9423 44.8911 11.8397 45.2116 11.8397C45.5449 11.8397 45.827 11.9551 46.0449 12.1731C46.2629 12.391 46.3783 12.6602 46.3783 12.9551C46.3783 13.2628 46.2629 13.532 46.0321 13.7372C45.8013 13.9551 45.5321 14.0577 45.1988 14.0577C44.8654 14.0577 44.5962 13.9551 44.3654 13.7372C44.1603 13.5192 44.0449 13.2628 44.0449 12.9551ZM46.1603 23.4423H44.2501V15.3013H46.1603V23.4423Z" fill="white"/>
<path d="M51.9807 22.0449C52.2628 22.0449 52.5833 21.9808 52.9294 21.8526C53.2756 21.7244 53.5833 21.5449 53.8781 21.327V23.109C53.5705 23.2885 53.2243 23.4167 52.8397 23.5064C52.4551 23.5962 52.0192 23.6475 51.5576 23.6475C50.3653 23.6475 49.391 23.2629 48.6346 22.5064C47.8781 21.75 47.5063 20.7757 47.5063 19.609C47.5063 18.3013 47.891 17.2244 48.6602 16.3782C49.4294 15.5321 50.5064 15.109 51.9166 15.109C52.2756 15.109 52.6346 15.1603 53.0064 15.25C53.3781 15.3398 53.6602 15.4552 53.8781 15.5705V17.4039C53.5833 17.1859 53.2756 17.0193 52.9679 16.9039C52.6602 16.7885 52.3397 16.7244 52.0192 16.7244C51.2628 16.7244 50.6602 16.968 50.1858 17.4552C49.7243 17.9423 49.4935 18.609 49.4935 19.4423C49.4935 20.2629 49.7115 20.9039 50.1602 21.3654C50.6089 21.827 51.2115 22.0449 51.9807 22.0449Z" fill="white"/>
<path d="M59.3273 15.1731C59.4811 15.1731 59.6221 15.1859 59.7375 15.1987C59.8529 15.2244 59.9683 15.25 60.0452 15.2757V17.2116C59.9427 17.1346 59.8016 17.0705 59.6093 17.0064C59.417 16.9423 59.1862 16.9039 58.9042 16.9039C58.4298 16.9039 58.0324 17.0962 57.7119 17.4936C57.3914 17.891 57.2247 18.4936 57.2247 19.3269V23.4423H55.3145V15.3013H57.2247V16.5834H57.2503C57.4298 16.1346 57.6862 15.7885 58.0452 15.5449C58.4042 15.3013 58.8273 15.1731 59.3273 15.1731Z" fill="white"/>
<path d="M60.1475 19.4936C60.1475 18.1475 60.5321 17.0834 61.2885 16.2885C62.0449 15.5064 63.109 15.109 64.4552 15.109C65.7244 15.109 66.7244 15.4936 67.4423 16.25C68.1603 17.0064 68.5193 18.0321 68.5193 19.3141C68.5193 20.6347 68.1346 21.6859 67.3782 22.468C66.6218 23.25 65.5834 23.6347 64.2757 23.6347C63.0192 23.6347 62.0064 23.2629 61.2757 22.5193C60.5193 21.7885 60.1475 20.7757 60.1475 19.4936ZM62.1475 19.4295C62.1475 20.2757 62.3398 20.9295 62.7244 21.3782C63.109 21.827 63.6603 22.0449 64.3782 22.0449C65.0705 22.0449 65.609 21.827 65.968 21.3782C66.3269 20.9295 66.5192 20.2629 66.5192 19.3782C66.5192 18.5064 66.3269 17.8398 65.9552 17.3911C65.5834 16.9423 65.0449 16.7244 64.3654 16.7244C63.6603 16.7244 63.1218 16.9552 62.7244 17.4295C62.3398 17.9039 62.1475 18.5577 62.1475 19.4295Z" fill="white"/>
<path d="M71.3656 17.4422C71.3656 17.7115 71.4553 17.9294 71.622 18.0832C71.8015 18.2371 72.1861 18.4294 72.7758 18.673C73.5451 18.9807 74.0835 19.3268 74.3912 19.7115C74.6989 20.0961 74.8528 20.5576 74.8528 21.0961C74.8528 21.8653 74.5579 22.4807 73.9682 22.9422C73.3784 23.4038 72.5835 23.6345 71.5835 23.6345C71.2502 23.6345 70.8784 23.5961 70.4682 23.5063C70.0579 23.4294 69.7117 23.314 69.4297 23.1986V21.314C69.7758 21.5576 70.1476 21.7499 70.5579 21.8909C70.9553 22.032 71.3271 22.1089 71.6476 22.1089C72.0835 22.1089 72.404 22.0448 72.6092 21.9294C72.8143 21.814 72.9169 21.6089 72.9169 21.314C72.9169 21.0448 72.8143 20.8268 72.5964 20.6474C72.3784 20.4679 71.981 20.2499 71.3784 20.0191C70.6733 19.7243 70.1733 19.3909 69.8784 19.0191C69.5835 18.6474 69.4297 18.173 69.4297 17.6089C69.4297 16.8781 69.7246 16.2756 70.3015 15.8012C70.8784 15.3268 71.6348 15.0961 72.5707 15.0961C72.8528 15.0961 73.1733 15.1217 73.5323 15.1858C73.8912 15.2499 74.1861 15.3268 74.4169 15.4294V17.2499C74.1605 17.0832 73.8656 16.9422 73.5323 16.814C73.1989 16.6986 72.8528 16.6345 72.5323 16.6345C72.1733 16.6345 71.8784 16.7115 71.6861 16.8525C71.4682 16.9935 71.3656 17.1986 71.3656 17.4422Z" fill="white"/>
<path d="M75.6987 19.4936C75.6987 18.1475 76.0833 17.0834 76.8398 16.2885C77.5962 15.5064 78.6603 15.109 80.0064 15.109C81.2757 15.109 82.2756 15.4936 82.9936 16.25C83.7115 17.0064 84.0705 18.0321 84.0705 19.3141C84.0705 20.6347 83.6859 21.6859 82.9295 22.468C82.1731 23.25 81.1346 23.6347 79.8269 23.6347C78.5705 23.6347 77.5577 23.2629 76.8269 22.5193C76.0705 21.7885 75.6987 20.7757 75.6987 19.4936ZM77.6859 19.4295C77.6859 20.2757 77.8782 20.9295 78.2628 21.3782C78.6474 21.827 79.1987 22.0449 79.9167 22.0449C80.609 22.0449 81.1474 21.827 81.5064 21.3782C81.8654 20.9295 82.0577 20.2629 82.0577 19.3782C82.0577 18.5064 81.8654 17.8398 81.4936 17.3911C81.1218 16.9423 80.5833 16.7244 79.9039 16.7244C79.1987 16.7244 78.6603 16.9552 78.2628 17.4295C77.8782 17.9039 77.6859 18.5577 77.6859 19.4295Z" fill="white"/>
<path d="M90.391 16.8782V21.0577C90.391 21.9295 90.5962 22.5705 90.9936 23.0064C91.391 23.4423 92.0064 23.6474 92.8141 23.6474C93.0833 23.6474 93.3654 23.6218 93.6474 23.5577C93.9295 23.4936 94.1346 23.4423 94.25 23.3654V21.7756C94.1346 21.8526 93.9936 21.9167 93.8397 21.9679C93.6859 22.0192 93.5449 22.0449 93.4423 22.0449C93.0577 22.0449 92.7628 21.9423 92.5833 21.7372C92.4038 21.532 92.3141 21.1731 92.3141 20.6731V16.8654H94.2628V15.3013H92.3269V12.891L90.4038 13.4808V15.3141H87.5449V14.3269C87.5449 13.8397 87.6474 13.4679 87.8654 13.2115C88.0833 12.9551 88.391 12.8397 88.7885 12.8397C88.9936 12.8397 89.1731 12.8654 89.3397 12.9167C89.4936 12.9679 89.609 13.0192 89.6731 13.0577V11.4038C89.5321 11.3526 89.3782 11.3269 89.1987 11.3013C89.0192 11.2756 88.8141 11.2628 88.5833 11.2628C87.7115 11.2628 86.9936 11.532 86.4423 12.0833C85.891 12.6346 85.609 13.3269 85.609 14.1859V15.3141H84.25V16.8782H85.609V23.4551H87.5449V16.8782H90.391V16.8782Z" fill="white"/>
<path d="M42.4038 12.0833V23.4422H40.4294V14.5448H40.4038L36.8781 23.4422H35.5704L31.955 14.5448H31.9294V23.4422H30.1089V12.0833H32.9294L36.1986 20.5063H36.2499L39.6986 12.0833H42.4038Z" fill="white"/>
<path d="M35.2884 7.17308C34.6089 7.5577 33.8396 7.75001 32.9807 7.75001C32.3268 7.75001 31.7499 7.60898 31.2371 7.31411C30.7371 7.03206 30.3396 6.6218 30.0704 6.09616C29.8012 5.57052 29.6602 4.98078 29.6602 4.32693C29.6602 3.63462 29.814 3.00642 30.1089 2.46795C30.4037 1.92949 30.8268 1.4936 31.3781 1.1859C31.9294 0.878211 32.5448 0.724365 33.2371 0.724365C33.5832 0.724365 33.9294 0.762827 34.2755 0.82693C34.6217 0.891032 34.9037 0.980776 35.1217 1.08334V2.10898C34.6089 1.76283 33.955 1.59616 33.1602 1.59616C32.6858 1.59616 32.2627 1.71154 31.8781 1.94231C31.4935 2.17308 31.1986 2.4936 30.9935 2.89103C30.7884 3.30129 30.6858 3.76283 30.6858 4.27565C30.6858 5.08334 30.9037 5.72437 31.3268 6.19873C31.7499 6.67308 32.3396 6.90385 33.0832 6.90385C33.5576 6.90385 33.9807 6.81411 34.3396 6.6218V4.86539H32.8909V4.01924H35.2884V7.17308Z" fill="white"/>
<path d="M40.8142 5.46797H37.4552C37.468 5.95515 37.6219 6.32694 37.8783 6.59617C38.1475 6.85258 38.4937 6.99361 38.9295 6.99361C39.5065 6.99361 40.0065 6.82694 40.4424 6.49361V7.31412C40.2501 7.44233 40.0065 7.55771 39.7116 7.63463C39.4167 7.71156 39.109 7.75002 38.8013 7.75002C38.0706 7.75002 37.4937 7.53207 37.0962 7.09617C36.6988 6.66028 36.4937 6.04489 36.4937 5.25002C36.4937 4.76284 36.5962 4.31412 36.7885 3.92951C36.9808 3.53207 37.2629 3.22438 37.609 3.00643C37.9552 2.78848 38.3526 2.6731 38.7757 2.6731C39.4039 2.6731 39.9039 2.87822 40.2629 3.28848C40.6219 3.69874 40.8013 4.26284 40.8013 4.99361V5.46797H40.8142ZM39.8783 4.7372C39.8783 4.31412 39.7757 3.99361 39.5834 3.77566C39.3911 3.55771 39.1219 3.44233 38.7629 3.44233C38.4424 3.44233 38.1603 3.55771 37.9167 3.78848C37.6731 4.01925 37.5321 4.33976 37.4552 4.7372H39.8783V4.7372Z" fill="white"/>
<path d="M44.4552 7.58331C44.3654 7.63459 44.2501 7.67306 44.0834 7.6987C43.9296 7.72434 43.7885 7.73716 43.6603 7.73716C42.7629 7.73716 42.3142 7.23716 42.3142 6.24998V3.55767H41.4937V2.78844H42.3142V1.63459L43.2501 1.33972V2.77562H44.4424V3.54485H43.2501V6.08331C43.2501 6.40382 43.3013 6.63459 43.4039 6.7628C43.5065 6.891 43.686 6.95511 43.9552 6.95511C44.1347 6.95511 44.3013 6.90382 44.4424 6.80126V7.58331H44.4552Z" fill="white"/>
<path d="M49.0965 1.07046C49.0965 1.2243 49.0452 1.35251 48.9298 1.46789C48.8144 1.58328 48.6734 1.63456 48.5067 1.63456C48.3401 1.63456 48.199 1.58328 48.0837 1.46789C47.9683 1.36533 47.917 1.2243 47.917 1.05764C47.917 0.890969 47.9811 0.749944 48.0965 0.64738C48.2119 0.544816 48.3529 0.480713 48.5067 0.480713C48.6606 0.480713 48.8016 0.531995 48.917 0.64738C49.0452 0.775585 49.0965 0.903791 49.0965 1.07046ZM48.9683 7.63456H48.0324V2.78841H48.9683V7.63456Z" fill="white"/>
<path d="M53.0323 7.58331C52.9426 7.63459 52.8272 7.67306 52.6605 7.6987C52.5067 7.72434 52.3657 7.73716 52.2375 7.73716C51.34 7.73716 50.8913 7.23716 50.8913 6.24998V3.55767H50.0708V2.78844H50.8913V1.63459L51.8272 1.33972V2.77562H53.0195V3.54485H51.8272V6.08331C51.8272 6.40382 51.8785 6.63459 51.9811 6.7628C52.0836 6.891 52.2631 6.95511 52.5323 6.95511C52.7118 6.95511 52.8785 6.90382 53.0195 6.80126V7.58331H53.0323Z" fill="white"/>
<path d="M59.1607 1.24997C59.0068 1.17305 58.8401 1.12177 58.6478 1.12177C58.1222 1.12177 57.8658 1.44228 57.8658 2.08331V2.77562H58.9684V3.54485H57.8658V7.62177H56.9299V3.55767H56.1094V2.78844H56.9299V2.04485C56.9299 1.53203 57.0709 1.12177 57.3658 0.814078C57.6607 0.506386 58.0581 0.352539 58.5709 0.352539C58.8273 0.352539 59.0196 0.378181 59.1735 0.442283V1.24997H59.1607Z" fill="white"/>
<path d="M62.609 3.72437C62.5578 3.68591 62.4552 3.64745 62.327 3.60899C62.1988 3.58335 62.0834 3.5577 61.9937 3.5577C61.6603 3.5577 61.3911 3.71155 61.186 4.00642C60.9808 4.30129 60.8783 4.68591 60.8783 5.16027V7.63463H59.9424V2.78847H60.8783V3.76283H60.9039C61.0065 3.4295 61.1732 3.17309 61.3911 2.98078C61.609 2.78847 61.8655 2.69873 62.1475 2.69873C62.3398 2.69873 62.4937 2.72437 62.5962 2.76283V3.72437H62.609Z" fill="white"/>
<path d="M67.9554 5.18592C67.9554 5.96797 67.7246 6.59617 67.2759 7.05771C66.8272 7.51925 66.2246 7.75002 65.4811 7.75002C64.7503 7.75002 64.1605 7.51925 63.7246 7.07053C63.2887 6.62181 63.0708 6.01925 63.0708 5.26284C63.0708 4.45515 63.3016 3.82694 63.7503 3.3654C64.199 2.90386 64.8144 2.6731 65.5964 2.6731C66.3272 2.6731 66.9041 2.89104 67.3144 3.33976C67.7503 3.78848 67.9554 4.40386 67.9554 5.18592ZM66.9939 5.21156C66.9939 4.63463 66.8657 4.19874 66.6221 3.90386C66.3657 3.60899 66.0195 3.45515 65.558 3.45515C65.0964 3.45515 64.7246 3.60899 64.4554 3.92951C64.1862 4.2372 64.058 4.68592 64.058 5.25002C64.058 5.8013 64.1862 6.22438 64.4554 6.53207C64.7246 6.83976 65.0836 6.99361 65.558 6.99361C66.0323 6.99361 66.3913 6.83976 66.6349 6.54489C66.8657 6.22438 66.9939 5.78848 66.9939 5.21156Z" fill="white"/>
<path d="M76.3268 7.63464H75.3909V4.87823C75.3909 4.37823 75.314 4.01925 75.1601 3.78848C75.0063 3.55771 74.7371 3.45515 74.3653 3.45515C74.0576 3.45515 73.7883 3.59618 73.5832 3.87823C73.3653 4.16028 73.2627 4.50643 73.2627 4.89105V7.63464H72.3268V4.78848C72.3268 3.90387 71.9806 3.45515 71.3012 3.45515C70.9806 3.45515 70.7114 3.59618 70.5063 3.86541C70.3012 4.13464 70.1986 4.48079 70.1986 4.90387V7.64746H69.2627V2.78848H70.1986V3.54489H70.2114C70.5576 2.95515 71.0704 2.6731 71.7242 2.6731C72.0319 2.6731 72.314 2.76284 72.5704 2.92951C72.814 3.09618 72.9935 3.33977 73.1088 3.64746C73.3012 3.31413 73.5191 3.07053 73.7883 2.90387C74.0576 2.75002 74.3653 2.66028 74.7242 2.66028C75.7883 2.66028 76.314 3.31412 76.314 4.63464V7.63464H76.3268Z" fill="white"/>
</svg>
